<svg xmlns="http://www.w3.org/2000/svg" xmlns:xlink="http://www.w3.org/1999/xlink" viewBox="0 0 1238.3 241.77"><defs><style>.cls-1{isolation:isolate;}.cls-2{font-size:180px;fill:#3caef0;}.cls-2,.cls-5{font-family:Menlo-Bold, Menlo;font-weight:700;}.cls-2,.cls-3{letter-spacing:-0.05em;}.cls-3{font-size:130px;fill:#215ec1;font-family:Menlo-Italic, Menlo;font-style:italic;}.cls-4{fill:url(#未命名的渐变_6);}.cls-5{font-size:184.25px;letter-spacing:-0.05em;}.cls-5,.cls-9{fill:#fff;}.cls-6{opacity:0.4;fill:url(#未命名的渐变_160);}.cls-10,.cls-12,.cls-6,.cls-8{mix-blend-mode:overlay;}.cls-7{fill:url(#未命名的渐变_150);}.cls-8{opacity:0.1;}.cls-10,.cls-12{opacity:0.2;}.cls-10{fill:url(#未命名的渐变_160-2);}.cls-11{fill:url(#未命名的渐变_57);}.cls-13{fill:#f8f7ff;}</style><linearGradient id="未命名的渐变_6" x1="112.32" x2="112.32" y2="196.48" gradientUnits="userSpaceOnUse"><stop offset="0" stop-color="#43abe8"/><stop offset="1" stop-color="#133eb1"/></linearGradient><linearGradient id="未命名的渐变_160" x1="105.85" y1="117.97" x2="105.85" y2="196.48" gradientUnits="userSpaceOnUse"><stop offset="0" stop-opacity="0.2"/><stop offset="1" stop-color="#231815" stop-opacity="0.6"/></linearGradient><linearGradient id="未命名的渐变_150" x1="105.85" y1="121.7" x2="105.85" y2="196.48" gradientUnits="userSpaceOnUse"><stop offset="0" stop-color="#92cdf4"/><stop offset="0.72" stop-color="#2071c7"/></linearGradient><linearGradient id="未命名的渐变_160-2" x1="103.28" y1="152.83" x2="103.28" y2="196.48" xlink:href="#未命名的渐变_160"/><linearGradient id="未命名的渐变_57" x1="103.28" y1="155.11" x2="103.28" y2="196.48" gradientUnits="userSpaceOnUse"><stop offset="0" stop-color="#a2dff6"/><stop offset="1" stop-color="#69b9e9"/></linearGradient></defs><title>未标题-1</title><g class="cls-1"><g id="图层_1" data-name="图层 1"><text class="cls-2" transform="translate(249.96 169.17)">age</text><text class="cls-3" transform="translate(591.5 166.63)">Stranding</text><path class="cls-4" d="M224.48,41.8,211.7,132.4v0c-.1.73-.21,1.48-.31,2.25l-4.82,34.16h0l-2.81,19.93a9,9,0,0,1-8.88,7.71H14.17c-.28,0-.56,0-.83,0a13.53,13.53,0,0,1-3-.49h-.05a14.23,14.23,0,0,1-9.41-8.72,12.33,12.33,0,0,1-.51-1.7,14.1,14.1,0,0,1-.23-5.2l.23-1.63v0s0-.08,0-.12L2,167.15v0l0-.21.15-1.06,1.65-11.7L23.66,13.48A15.67,15.67,0,0,1,41.36.16L211.15,24.09A15.68,15.68,0,0,1,224.48,41.8Z"/><text class="cls-5" transform="translate(67.63 169.17)">P</text><path class="cls-6" d="M211.7,132.41h0c-.1.73-.21,1.48-.31,2.25l-4.82,34.16h0l-2.81,19.93a9,9,0,0,1-8.88,7.71H14.17c-.28,0-.56,0-.83,0a13.53,13.53,0,0,1-3-.49h-.05a14.23,14.23,0,0,1-9.41-8.72,12.33,12.33,0,0,1-.51-1.7,14.1,14.1,0,0,1-.23-5.2l.23-1.63v0s0-.08,0-.12L2,167.15v0l0-.21,1.8-12.76a21.4,21.4,0,0,1,17.33-9.78c19,0,23.48,21.83,37.41,21.83,4.31,0,8.15-1.37,8.15-6.76,0-11.07-16.14-12.47-16.62-28.18C49.78,120.41,61.53,118,66,118c19.54,0,26.53,31.6,40.86,31.6,13.14,0-1.33-13.39-1.33-18.77,0-4.72,5.52-8.49,10.58-8.49,22.64,0,35.05,32.78,69.08,32.78C203.45,155.09,211.34,133,211.7,132.41Z"/><path class="cls-7" d="M211.7,132.42c-.1.73-.21,1.48-.31,2.25l-4.82,34.16h0l-2.81,19.93a9,9,0,0,1-8.88,7.71H14.17c-.28,0-.56,0-.83,0a21.85,21.85,0,0,1-3-.49h-.05a14.23,14.23,0,0,1-9.41-8.72,12.33,12.33,0,0,1-.51-1.7,14.1,14.1,0,0,1-.23-5.2l.23-1.63v0s0-.08,0-.12L2,167.15v0l0-.21c2.21-15,12.68-19.77,21.2-19.77,19,0,22.88,19.6,36.81,19.6,4.31,0,8.69-2.25,8.69-7.64,0-11.07-14-14.58-14-26.85,0-7.17,7.38-10.54,11.84-10.54,19.54,0,27.15,28.35,41.48,28.35,11.89,0,2-12.87,2-18.25,0-4.72,3.58-6.68,8.64-6.68,22.64,0,35.05,31,69.09,31C206.57,156.09,211.7,132.42,211.7,132.42Z"/><g class="cls-8"><path class="cls-9" d="M66.59,123.7c9.61,0,16.21,7.68,22.59,15.12,5.84,6.8,11.36,13.23,18.89,13.23,3.28,0,5.58-.93,6.83-2.74,2.18-3.19.37-7.89-1.24-12.05-.8-2.09-1.64-4.25-1.64-5.46s0-4.68,6.64-4.68c9.49,0,17.13,5.89,26,12.71,11.1,8.56,23.68,18.26,43.11,18.26,8,0,14.87-4,19.95-11.56l-3.11,22,0,.15h0l-2.79,19.78a7,7,0,0,1-6.9,6H14.17c-.23,0-.46,0-.67,0a20.35,20.35,0,0,1-2.69-.44l-.19,0a12.28,12.28,0,0,1-7.87-7.45,10.09,10.09,0,0,1-.43-1.44,12.14,12.14,0,0,1-.2-4.46L2.35,179v0h0v-.1L4,167.43l0-.18v-.06c2.46-16.76,15.33-18.06,19.22-18.06,9.4,0,14.83,5.27,20.07,10.36C48,164,52.8,168.73,60,168.73c5.32,0,10.69-3,10.69-9.64,0-6.18-3.69-10.18-7.25-14s-6.73-7.3-6.73-12.81c0-6,6.52-8.54,9.84-8.54m0-2c-4.46,0-11.84,3.37-11.84,10.54,0,12.27,14,15.78,14,26.85,0,5.39-4.38,7.64-8.69,7.64-13.93,0-17.84-19.6-36.81-19.6-8.52,0-19,4.74-21.2,19.77l0,.21v0L.39,178.56s0,.08,0,.12v0l-.23,1.63a14.1,14.1,0,0,0,.23,5.2,12.33,12.33,0,0,0,.51,1.7A14.23,14.23,0,0,0,10.29,196h.05a21.85,21.85,0,0,0,3,.49c.27,0,.55,0,.83,0H194.88a9,9,0,0,0,8.88-7.71l2.81-19.93h0l4.82-34.16c.1-.77.21-1.52.31-2.25,0,0-5.13,23.67-23.95,23.67-34,0-46.45-31-69.09-31-5.06,0-8.64,2-8.64,6.68,0,5.38,9.94,18.25-2,18.25-14.33,0-21.94-28.35-41.48-28.35Z"/></g><g class="cls-8"><path class="cls-9" d="M66.59,122.7c10.07,0,16.82,7.86,23.35,15.46,5.69,6.63,11.06,12.89,18.13,12.89,3,0,4.94-.76,6-2.31,1.89-2.75.25-7-1.34-11.12-.88-2.27-1.71-4.42-1.71-5.82,0-3.77,2.57-5.68,7.64-5.68,9.83,0,17.6,6,26.59,12.92,11,8.46,23.41,18.05,42.5,18.05,8.06,0,14.94-4.26,19.88-12.32.67-1.08,1.26-2.16,1.78-3.21l-3.83,27.13v.08h0l-2.8,19.85a8,8,0,0,1-7.89,6.86H14.17q-.39,0-.75,0a20.05,20.05,0,0,1-2.86-.47h0l-.13,0h0a13.29,13.29,0,0,1-8.62-8.08,12.48,12.48,0,0,1-.47-1.57,13,13,0,0,1-.21-4.83l.23-1.63v-.08h0v-.05L3,167.29v-.11L3,167c2.58-17.55,16.12-18.91,20.21-18.91,9.81,0,15.38,5.41,20.76,10.64,4.74,4.61,9.22,9,16,9,4.82,0,9.69-2.68,9.69-8.64,0-5.79-3.55-9.64-7-13.36-3.59-3.91-7-7.59-7-13.49a8.65,8.65,0,0,1,3.83-7.15,12.58,12.58,0,0,1,7-2.39m0-1c-4.46,0-11.84,3.37-11.84,10.54,0,12.27,14,15.78,14,26.85,0,5.39-4.38,7.64-8.69,7.64-13.93,0-17.84-19.6-36.81-19.6-8.52,0-19,4.74-21.2,19.77l0,.21v0L.39,178.56s0,.08,0,.12v0l-.23,1.63a14.1,14.1,0,0,0,.23,5.2,12.33,12.33,0,0,0,.51,1.7A14.23,14.23,0,0,0,10.29,196h.05a21.85,21.85,0,0,0,3,.49c.27,0,.55,0,.83,0H194.88a9,9,0,0,0,8.88-7.71l2.81-19.93h0l4.82-34.16c.1-.77.21-1.52.31-2.25,0,0-5.13,23.67-23.95,23.67-34,0-46.45-31-69.09-31-5.06,0-8.64,2-8.64,6.68,0,5.38,9.94,18.25-2,18.25-14.33,0-21.94-28.35-41.48-28.35Z"/></g><path class="cls-10" d="M206.57,168.84l-2.81,19.93a9,9,0,0,1-8.88,7.71H14.17c-.28,0-.56,0-.83,0a13.53,13.53,0,0,1-3-.49h-.05a14.23,14.23,0,0,1-9.41-8.72,12.33,12.33,0,0,1-.51-1.7,14.1,14.1,0,0,1-.23-5.2l.23-1.63v0s0-.08,0-.12L2,167.15v0l0-.21.15-1.06A12.65,12.65,0,0,1,11,162.6c15.64,0,19.82,17.71,36.65,17.71,17,0,16.51-11.08,35.29-11.08,7.93,0,21.07,7,18.41-.46-1.56-4.36,2-6.65,4.78-6.65,8,0,9.75,4.29,21.34,7.76,14.88,4.45,16.78-2.5,14.88-7.6-1.66-4.45.84-9.45,6.46-9.45,12,0,20.38,18.62,31.6,24.65C191.82,183.62,205,180.28,206.57,168.84Z"/><path class="cls-11" d="M206.57,168.84l-2.81,19.93a9,9,0,0,1-8.88,7.71H14.17c-.28,0-.56,0-.83,0a13.53,13.53,0,0,1-3-.49h-.05a14.23,14.23,0,0,1-9.41-8.72,12.33,12.33,0,0,1-.51-1.7,14.1,14.1,0,0,1-.23-5.2l.23-1.63v0s0-.08,0-.12a23.54,23.54,0,0,1,1.25-5c2.66-7.07,8.11-8.65,12.3-8.65,15.64,0,19.82,17.7,36.65,17.7,17,0,16.51-11.08,35.3-11.08,7.92,0,21.06,7,18.4-.45-1.56-4.36,2-6.65,4.78-6.65,8,0,9.75,4.29,21.34,7.76,14.88,4.45,16.78-2.5,14.88-7.61-1.66-4.44.84-9.44,6.46-9.44,12,0,20.38,18.61,31.6,24.65C194.76,185.89,205,180.28,206.57,168.84Z"/><g class="cls-12"><path class="cls-9" d="M151.75,156.11c6.63,0,12.18,6.17,18,12.7,4.1,4.56,8.34,9.27,13.09,11.83a20.31,20.31,0,0,0,9.63,2.64,14.26,14.26,0,0,0,11.86-6l-1.6,11.33a8,8,0,0,1-7.89,6.86H14.17l-.78,0a12.62,12.62,0,0,1-2.78-.46l-.13,0h-.05a13.29,13.29,0,0,1-8.62-8.08,12.48,12.48,0,0,1-.47-1.57,13,13,0,0,1-.21-4.83l.23-1.63v-.08h0v-.05a22.63,22.63,0,0,1,1.2-4.82c2.48-6.62,7.55-8,11.36-8,7.3,0,12,4.06,16.94,8.36,5.29,4.59,10.77,9.34,19.71,9.34,8.61,0,13-2.79,17.22-5.49s8.75-5.59,18.08-5.59A41.67,41.67,0,0,1,95,174.14a34.89,34.89,0,0,0,7.19,1.34,3.36,3.36,0,0,0,3-1.18c.6-.85.61-2,0-3.59a3.74,3.74,0,0,1,.27-3.57,4.53,4.53,0,0,1,3.57-1.74c4.2,0,6.58,1.25,9.86,3a56.28,56.28,0,0,0,11.19,4.72,30.12,30.12,0,0,0,8.45,1.47c4.25,0,6.27-1.62,7.21-3,1.33-1.91,1.49-4.6.45-7.4a6.24,6.24,0,0,1,.56-5.74,5.78,5.78,0,0,1,5-2.35m0-1c-5.62,0-8.12,5-6.46,9.44,1.48,4,.66,9-6.72,9a29.47,29.47,0,0,1-8.16-1.42c-11.59-3.47-13.36-7.76-21.34-7.76-2.73,0-6.34,2.29-4.78,6.65.92,2.58-.06,3.43-2.07,3.43-3.77,0-11.16-3-16.33-3-18.79,0-18.25,11.08-35.3,11.08-16.83,0-21-17.7-36.65-17.7-4.19,0-9.64,1.58-12.3,8.65a23.54,23.54,0,0,0-1.25,5s0,.08,0,.12v0l-.23,1.63a14.1,14.1,0,0,0,.23,5.2,12.33,12.33,0,0,0,.51,1.7A14.23,14.23,0,0,0,10.29,196h.05a13.53,13.53,0,0,0,3,.49c.27,0,.55,0,.83,0H194.88a9,9,0,0,0,8.88-7.71l2.81-19.93c-1.17,8.22-6.76,13.44-14.06,13.44a19.47,19.47,0,0,1-9.16-2.52c-11.22-6-19.6-24.65-31.6-24.65Z"/></g><path class="cls-13" d="M191.64,196.48c-14.22,0-22.47-19.06-34.58-19.06A10.08,10.08,0,0,0,146.7,187c0,4.35,3.63,9.53,12.84,9.53Z"/><path class="cls-13" d="M138.08,196.48c-7.8,0-11.87-8.9-17.88-9.53-3.72-.39-5.21,1-5.86,3-.76,2.39,1.1,6.51,6.15,6.51Z"/></g></g></svg>